<svg width="1024" height="1024" version="1.1" xmlns="http://www.w3.org/2000/svg" desc="Created with imagetracer.js version 1.2.6" ><path fill="rgb(0,0,0)" stroke="rgb(0,0,0)" stroke-width="1" opacity="0" d="M 0 0 L 1024 0 L 1024 1024 L 0 1024 L 0 0 Z M 632 244 L 629 249 L 629 253 L 627 258 L 623 265 L 615 272 L 600 277 Q 594 275 595 279 L 610 282 L 621 289 Q 628 297 631 312 L 635 300 L 641 290 Q 648 281 663 280 L 665 280 L 667 279 L 666 277 L 651 274 L 646 271 Q 633 263 632 244 Z M 527 285 L 516 287 L 504 293 Q 495 300 490 310 L 486 328 L 487 337 L 490 346 L 496 356 Q 505 366 521 371 L 540 371 Q 551 368 559 361 Q 558 358 561 359 Q 570 350 573 335 L 572 318 L 564 302 Q 556 292 544 287 L 534 285 L 527 285 Z M 668 319 L 655 328 L 538 391 L 531 396 Q 519 404 517 423 L 517 425 L 516 435 L 516 437 L 517 439 L 518 506 L 518 510 L 519 511 L 519 524 L 532 519 L 584 490 L 669 321 Q 670 318 668 319 Z M 355 354 L 355 357 L 383 415 L 392 420 L 431 436 L 448 494 L 453 498 L 466 503 L 508 524 L 510 524 L 508 514 L 507 495 L 506 494 L 505 471 L 504 470 L 504 461 L 502 451 L 500 424 Q 498 413 492 406 Q 487 398 478 395 L 355 354 Z M 200 565 L 187 570 Q 180 574 178 583 Q 177 592 181 597 Q 186 604 197 605 Q 198 608 200 606 L 210 609 L 215 614 L 214 618 L 215 621 L 208 625 L 206 625 L 194 624 Q 192 620 191 623 L 184 618 L 180 624 Q 181 626 178 625 L 178 629 Q 185 634 196 636 L 211 636 L 222 631 L 228 622 Q 230 609 225 605 Q 221 599 215 597 L 195 591 L 191 587 L 192 582 L 200 577 Q 215 576 222 585 L 227 575 L 220 569 L 200 565 Z M 504 566 L 504 574 L 503 577 L 506 579 L 511 578 L 513 578 Q 519 577 522 579 L 522 634 L 524 635 L 535 635 L 536 634 L 535 632 L 536 627 L 535 623 L 536 621 L 535 616 L 536 611 L 536 580 L 538 578 L 543 579 L 550 578 L 552 578 L 556 579 L 556 569 L 557 568 L 556 566 L 504 566 Z M 376 574 L 375 599 L 376 600 L 375 601 L 375 632 L 374 633 Q 376 637 378 634 L 380 635 L 382 635 L 384 634 L 387 635 L 388 634 L 388 619 L 388 617 L 398 616 L 400 616 L 410 633 Q 411 636 417 635 L 419 635 L 421 634 L 423 634 L 426 635 L 412 614 L 417 611 Q 422 607 424 600 Q 426 588 421 583 L 415 577 L 407 575 L 377 575 L 376 574 Z M 572 574 L 563 592 L 560 603 L 558 605 L 551 622 L 551 625 L 546 635 L 560 635 L 563 626 L 566 623 L 567 624 L 591 624 L 594 634 L 595 635 L 608 635 L 604 625 L 604 622 L 599 613 L 597 605 L 595 603 L 585 576 L 584 574 L 572 574 Z M 617 574 L 614 577 L 614 614 L 615 616 L 614 619 L 615 622 L 614 624 L 615 625 L 616 636 L 617 635 L 655 635 L 655 624 L 646 624 L 644 624 L 631 624 L 630 623 L 629 625 L 628 625 L 628 575 L 628 574 L 617 574 Z M 665 574 Q 660 576 663 578 Q 665 583 662 585 Q 665 586 663 592 L 663 594 L 662 597 L 662 599 L 663 608 L 663 610 Q 664 614 662 616 L 663 618 L 662 623 L 663 626 L 663 635 L 664 635 L 706 635 L 707 634 L 707 626 L 708 624 L 678 624 L 677 625 L 676 611 L 702 611 L 702 613 L 704 613 L 704 611 L 703 610 L 703 599 L 700 600 L 676 600 L 676 586 L 707 586 L 707 575 L 707 574 L 665 574 Z M 719 574 Q 717 577 718 585 L 718 587 L 719 589 L 718 599 L 719 602 L 719 635 L 731 635 L 732 597 L 737 605 Q 736 607 739 606 L 744 614 Q 743 616 746 615 L 759 633 L 762 635 L 772 635 L 772 577 L 773 576 L 772 574 L 761 574 L 759 576 L 759 612 L 748 599 Q 749 596 746 597 L 745 595 Q 746 592 743 593 L 741 589 L 730 576 L 730 574 L 719 574 Z M 781 574 L 781 587 Q 784 585 792 586 L 794 586 Q 799 585 799 587 L 799 635 L 810 635 L 811 636 L 812 634 L 811 632 L 812 627 L 811 626 L 811 617 L 811 613 L 812 609 L 812 607 L 811 605 L 812 603 L 812 586 L 829 586 L 831 587 L 831 575 L 831 574 L 781 574 Z M 239 575 L 239 635 L 240 635 L 251 635 L 252 596 L 266 622 Q 267 624 271 624 L 288 595 L 288 634 Q 289 636 291 634 Q 297 632 299 635 L 301 634 L 300 633 L 300 576 L 300 575 L 285 575 L 284 580 L 271 603 L 268 604 L 267 600 L 254 577 L 253 575 L 239 575 Z M 331 575 L 329 581 Q 330 584 328 583 L 328 585 L 308 635 L 311 634 L 320 635 L 322 633 L 325 625 L 326 623 L 350 623 Q 354 626 354 633 Q 356 637 358 634 L 361 635 L 363 634 L 365 634 L 368 635 L 365 625 L 345 577 L 345 575 L 331 575 Z M 430 575 L 430 586 L 439 586 L 440 587 Q 441 584 448 586 L 449 589 L 449 591 L 448 596 L 449 599 L 448 601 L 449 616 L 449 618 L 449 632 L 448 633 Q 447 635 450 634 L 454 634 L 458 635 L 460 635 L 461 635 L 461 586 L 480 586 L 480 576 L 480 575 L 430 575 Z " /><path fill="rgb(0,0,0)" stroke="rgb(0,0,0)" stroke-width="1" opacity="0" d="M 389.5 585 L 391.5 585 L 405.5 586 L 411 590.5 Q 413.3 601.8 406.5 604 L 404.5 605 L 388 605 L 388 586.5 L 389.5 585 Z " /><path fill="rgb(0,0,0)" stroke="rgb(0,0,0)" stroke-width="1" opacity="0" d="M 337.5 590 L 347 613 L 340.5 613 L 339.5 612 Q 338 614.5 332.5 613 L 330.5 613 L 329 612.5 L 337.5 590 Z " /><path fill="rgb(0,0,0)" stroke="rgb(0,0,0)" stroke-width="1" opacity="0" d="M 577.5 591 L 581 601.5 L 583 603.5 Q 580.5 605 584 606.5 L 586 611.5 Q 582.9 613.9 576.5 613 L 574.5 612 L 571.5 613 L 568 612.5 L 571 608.5 L 575 594.5 L 577.5 591 Z " /><path fill="rgb(32,110,119)" stroke="rgb(32,110,119)" stroke-width="1" opacity="0.9725490196078431" d="M 488.5 317 L 489 319.5 L 488 319.5 L 488.5 317 Z " /><path fill="rgb(32,110,119)" stroke="rgb(32,110,119)" stroke-width="1" opacity="0.9725490196078431" d="M 487.5 321 Q 486.8 334.7 491.5 343 Q 493 340.5 494.5 344 L 502 347 Q 500.8 350 504.5 349 L 510.5 353 Q 512 350.5 513.5 354 L 518.5 357 L 520.5 356 Q 523.3 360.3 531 359.5 L 528 360.5 L 532.5 362 L 536.5 362 Q 541.5 361 542.5 364 L 544 363.5 Q 543.3 365.8 545.5 365 L 545.5 367 Q 555 363.5 561 356.5 L 566.5 349 L 566 350.5 L 555.5 363 Q 548.5 369 537.5 371 L 521.5 371 Q 505.8 367.2 497 356.5 L 490 345.5 L 486 327.5 L 487.5 321 Z " /><path fill="rgb(32,110,119)" stroke="rgb(32,110,119)" stroke-width="1" opacity="0.9725490196078431" d="M 569.5 342 L 570 343.5 L 568.5 346 L 568 344.5 L 569.5 342 Z " /><path fill="rgb(32,110,119)" stroke="rgb(32,110,119)" stroke-width="1" opacity="0.9725490196078431" d="M 354.5 353 L 424.5 378 L 477.5 395 Q 486.8 398.2 492 405.5 Q 498 412.5 500 423.5 L 502 450.5 L 504 460.5 L 504 469.5 L 505 470.5 L 506 493.5 L 507 494.5 L 508 513.5 L 510 523.5 L 507.5 524 L 465.5 503 L 452.5 498 L 448 493.5 L 431 436 L 391.5 420 L 383 414.5 L 355 356.5 L 354.5 353 Z " /><path fill="rgb(32,110,119)" stroke="rgb(32,110,119)" stroke-width="1" opacity="0.9725490196078431" d="M 648.5 359 L 649 360.5 L 647 361.5 L 648.5 359 Z " /><path fill="rgb(32,110,119)" stroke="rgb(32,110,119)" stroke-width="1" opacity="0.9725490196078431" d="M 592.5 362 L 591.5 364 L 592.5 362 Z " /><path fill="rgb(32,110,119)" stroke="rgb(32,110,119)" stroke-width="1" opacity="0.9725490196078431" d="M 585.5 366 L 584.5 368 L 563.5 379 L 564.5 377 L 585.5 366 Z " /><path fill="rgb(32,110,119)" stroke="rgb(32,110,119)" stroke-width="1" opacity="0.9725490196078431" d="M 625.5 374 L 621 379.5 L 612 390.5 L 612.5 392 L 611.5 391 L 608 394.5 L 609.5 395 L 611 394.5 Q 608.5 396 612 397.5 L 613 399.5 L 611.5 402 L 614 402.5 L 613.5 404 L 615.5 403 L 615 404.5 Q 614.3 407.1 617 406 L 617 408.5 L 616.5 412 L 618.5 411 L 618 414.5 L 617.5 417 L 616 416.5 L 617 418.5 L 614 425.5 L 615 425.5 L 633.5 389 L 633 390.5 L 584 490 L 531.5 519 L 519 524 L 519 510.5 L 518 509.5 L 518 505.5 L 517 438.5 L 516 436.5 L 516 434.5 L 517 424.5 L 517 422.5 Q 519.8 402.8 533.5 394 L 561 380 L 561.5 378 L 562 379.5 L 536.5 393 L 527 401.5 Q 520.2 408.7 518 420.5 L 518 455.5 L 519 456.5 L 519.5 469 L 520.5 462 L 521.5 465 L 523 465 L 523 470 L 524.5 470 Q 527.3 471.3 525 472.5 L 528 475.5 L 527.5 477 L 529 477.5 L 528.5 479 Q 530.8 478.3 530 480.5 L 533 481.5 L 532.5 484 L 531 483.5 Q 530.1 486.5 534.5 485 L 534.5 486 L 533 486.5 L 534 488.5 L 531 496.5 L 532 496.5 Q 544.6 463.6 564 437.5 L 625.5 374 Z M 531 497 L 528 502 L 529 504 L 531 500 L 531 497 Z M 528 504 L 526 507 L 527 509 L 528 507 L 528 504 Z M 521 516 L 522 520 L 523 517 L 521 516 Z " /><path fill="rgb(32,110,119)" stroke="rgb(32,110,119)" stroke-width="1" opacity="0.9725490196078431" d="M 640.5 375 L 640 376.5 L 635.5 386 L 635 384.5 L 640.5 375 Z " /><path fill="rgb(32,110,119)" stroke="rgb(32,110,119)" stroke-width="1" opacity="0.9725490196078431" d="M 199.5 565 L 219.5 569 L 227 574.5 L 221.5 585 Q 215.1 576.4 199.5 577 L 192 581.5 L 191 586.5 L 194.5 591 L 214.5 597 Q 221.3 599.3 225 604.5 Q 230.3 609.2 228 621.5 L 221.5 631 L 210.5 636 L 195.5 636 Q 184.9 634.1 178 628.5 L 178 625 Q 180.7 626.1 180 623.5 L 183.5 618 L 190.5 623 Q 192 620.5 193.5 624 L 205.5 625 L 207.5 625 L 215 620.5 L 214 617.5 L 215 613.5 L 209.5 609 L 199.5 606 Q 198 608.5 196.5 605 Q 185.6 603.9 181 596.5 Q 176.9 592.1 178 582.5 Q 180.2 574.2 186.5 570 L 199.5 565 Z " /><path fill="rgb(32,110,119)" stroke="rgb(32,110,119)" stroke-width="1" opacity="0.9725490196078431" d="M 504 567 L 555.5 567 L 556 567.5 L 556 578 L 536 578 L 536 610.5 L 535 610.5 L 535 578.5 L 536.5 577 L 555 577 L 555 568 L 505.5 568 L 505 568.5 L 505 577 L 521.5 577 L 523 578.5 L 523 633.5 L 523.5 634 L 535 634 L 535.5 632 L 536 633.5 L 534.5 635 L 523.5 635 L 522 633.5 L 522 578 L 504 578 L 504 567 Z " /><path fill="rgb(32,110,119)" stroke="rgb(32,110,119)" stroke-width="1" opacity="0.9725490196078431" d="M 253.5 574 L 254 576.5 L 267 599.5 L 268 604 L 271 602.5 L 284 579.5 L 285 575 L 299.5 575 L 300 575.5 L 300 632.5 L 300.5 634 L 298.5 635 Q 296.8 632.3 290.5 634 Q 289.2 636.3 288 633.5 L 287.5 595 L 270.5 624 Q 266.5 624.5 266 621.5 L 251.5 596 L 251 635 L 239.5 635 L 239 634.5 L 239 575 L 252.5 575 L 253.5 574 Z " /><path fill="rgb(32,110,119)" stroke="rgb(32,110,119)" stroke-width="1" opacity="0.9725490196078431" d="M 375.5 574 L 376.5 575 L 406.5 575 L 414.5 577 L 421 582.5 Q 425.5 588 424 599.5 Q 422.1 607.1 416.5 611 L 412 613.5 L 426 635 L 422.5 634 L 420.5 634 L 418.5 635 L 416.5 635 Q 411 636 410 632.5 L 399.5 616 L 397 617.5 L 397.5 616 L 388 616.5 L 388 618.5 L 388 633.5 L 386.5 635 L 383.5 634 L 381.5 635 L 379.5 635 L 377.5 634 Q 375.8 636.8 374 632.5 L 375 631.5 L 375 600.5 L 376 599.5 L 375 598.5 L 375.5 574 Z M 390 585 L 388 587 L 388 605 L 405 605 L 407 604 Q 413 602 411 591 L 406 586 L 392 585 L 390 585 Z " /><path fill="rgb(32,110,119)" stroke="rgb(32,110,119)" stroke-width="1" opacity="0.9725490196078431" d="M 783.5 574 L 784.5 575 L 831 575 L 831 584.5 L 829.5 586 L 812 586 L 812 602.5 L 811 602.5 L 811 585 L 830 585 L 830 576 L 782.5 576 L 782 576.5 L 782 585 L 800 585 L 800 633.5 L 800.5 634 L 811 634 L 810 626 L 812 626.5 L 811 631.5 L 812 633.5 L 810.5 636 L 809.5 635 L 799 635 L 799 586.5 Q 798.9 585.4 793.5 586 L 791.5 586 L 781 586 L 781 575 L 783.5 574 Z " /><path fill="rgb(32,110,119)" stroke="rgb(32,110,119)" stroke-width="1" opacity="0.9725490196078431" d="M 331 575 L 344.5 575 L 345 576.5 L 369 635.5 L 367.5 635 L 364.5 634 L 362.5 634 L 360.5 635 L 357.5 634 Q 355.8 636.8 354 632.5 Q 353.6 625.9 349.5 623 L 325.5 623 L 325 624.5 L 322 632.5 L 319.5 635 L 310.5 634 L 308 635 L 328 584.5 L 327.5 583 Q 330.1 583.8 329 580.5 L 331 575 Z M 338 590 L 330 612 L 330 613 L 333 611 L 333 613 Q 338 615 340 612 L 341 613 L 347 613 L 338 590 Z " /><path fill="rgb(32,110,119)" stroke="rgb(32,110,119)" stroke-width="1" opacity="0.9725490196078431" d="M 430 575 L 479.5 575 L 480 575.5 L 480 586 L 461 586 L 461 634.5 L 459.5 635 L 457.5 635 L 453.5 634 L 449.5 634 Q 447.3 634.8 448 632.5 L 449 631.5 L 449 617.5 L 449 615.5 L 448 600.5 L 449 598.5 L 448 595.5 L 449 590.5 L 449 588.5 L 447.5 586 Q 441.2 584.3 439.5 587 L 438.5 586 L 430 586 L 430 575 Z " /><path fill="rgb(32,110,119)" stroke="rgb(32,110,119)" stroke-width="1" opacity="0.9725490196078431" d="M 570 575 L 583.5 575 L 585 576.5 L 586 579.5 L 585 579.5 L 584 576 L 571.5 576 L 570.5 577 L 570 575 Z " /><path fill="rgb(32,110,119)" stroke="rgb(32,110,119)" stroke-width="1" opacity="0.9725490196078431" d="M 615 575 L 627.5 575 L 628 575.5 L 628 624.5 L 627 624.5 L 627 576.5 L 626.5 576 L 616 576 L 616 634 L 654.5 634 L 654.5 635 L 615 635 L 615 575 Z " /><path fill="rgb(32,110,119)" stroke="rgb(32,110,119)" stroke-width="1" opacity="0.9725490196078431" d="M 663.5 575 L 706.5 575 L 707 577.5 L 706 577.5 L 705.5 576 L 664 576 L 664 634 L 706 634 L 706 626.5 L 704.5 625 L 677 624.5 L 707 624 L 707 633.5 L 705.5 635 L 663.5 635 L 663 634.5 L 663 625.5 L 662 623.5 Q 664.5 622 663 616.5 L 663 614.5 Q 664.3 609.7 662 608.5 L 663 607.5 L 663 599.5 L 663 595.5 L 662 592.5 L 663 591.5 L 663 577.5 Q 660.8 576.3 663.5 575 Z " /><path fill="rgb(32,110,119)" stroke="rgb(32,110,119)" stroke-width="1" opacity="0.9725490196078431" d="M 719.5 575 L 729.5 575 L 732 577.5 L 750.5 602 Q 752.8 601.3 752 603.5 L 760 613.5 L 755 609.5 L 730 576 L 719.5 576 L 719.5 575 Z " /><path fill="rgb(32,110,119)" stroke="rgb(32,110,119)" stroke-width="1" opacity="0.9725490196078431" d="M 760.5 575 L 771.5 575 L 772 575.5 L 772 635 L 761.5 635 L 759 632.5 L 734 600.5 L 737 602.5 L 761 634 L 770.5 634 L 771 633.5 L 771 576 L 760.5 576 L 760 576.5 L 760 608.5 L 759 608.5 L 759 576.5 L 760.5 575 Z " /><path fill="rgb(32,110,119)" stroke="rgb(32,110,119)" stroke-width="1" opacity="0.9725490196078431" d="M 569.5 578 L 570 579.5 L 568.5 582 L 568 580.5 L 569.5 578 Z " /><path fill="rgb(32,110,119)" stroke="rgb(32,110,119)" stroke-width="1" opacity="0.9725490196078431" d="M 706.5 579 L 707 583.5 L 706 583.5 L 706.5 579 Z " /><path fill="rgb(32,110,119)" stroke="rgb(32,110,119)" stroke-width="1" opacity="0.9725490196078431" d="M 586.5 581 L 588 584.5 L 587 584.5 L 586.5 581 Z " /><path fill="rgb(32,110,119)" stroke="rgb(32,110,119)" stroke-width="1" opacity="0.9725490196078431" d="M 719.5 582 L 720 634 L 729.5 634 L 730 633.5 L 730 597.5 L 731 597.5 L 731 634.5 L 730.5 635 L 719 635 L 719.5 582 Z " /><path fill="rgb(32,110,119)" stroke="rgb(32,110,119)" stroke-width="1" opacity="0.9725490196078431" d="M 567.5 583 L 568 584.5 L 566.5 587 L 566 585.5 L 567.5 583 Z " /><path fill="rgb(32,110,119)" stroke="rgb(32,110,119)" stroke-width="1" opacity="0.9725490196078431" d="M 676.5 585 L 706 585.5 L 676 586 L 676 600 L 699.5 600 L 701.5 600 L 703 600.5 L 676.5 601 L 675 599.5 L 675 586.5 L 676.5 585 Z " /><path fill="rgb(32,110,119)" stroke="rgb(32,110,119)" stroke-width="1" opacity="0.9725490196078431" d="M 588.5 586 L 595 602.5 L 597 604.5 L 597 607.5 L 608 635 L 594 634.5 L 607 634 L 589 590.5 L 588.5 586 Z " /><path fill="rgb(32,110,119)" stroke="rgb(32,110,119)" stroke-width="1" opacity="0.9725490196078431" d="M 565.5 588 L 566 589.5 L 560.5 602 L 560 600.5 L 565.5 588 Z " /><path fill="rgb(32,110,119)" stroke="rgb(32,110,119)" stroke-width="1" opacity="0.9725490196078431" d="M 577.5 589 L 578 591 L 576 590.5 L 577.5 589 Z " /><path fill="rgb(32,110,119)" stroke="rgb(32,110,119)" stroke-width="1" opacity="0.9725490196078431" d="M 578.5 592 L 587 612.5 L 586 612.5 L 578.5 592 Z " /><path fill="rgb(32,110,119)" stroke="rgb(32,110,119)" stroke-width="1" opacity="0.9725490196078431" d="M 574.5 595 L 575 596.5 L 568.5 612 L 568 610.5 L 574.5 595 Z " /><path fill="rgb(32,110,119)" stroke="rgb(32,110,119)" stroke-width="1" opacity="0.9725490196078431" d="M 559.5 603 L 560 604.5 L 548 634 L 559.5 634 L 560 631.5 L 562.5 626 L 563 627.5 L 559.5 635 L 546.5 635 L 545 633.5 L 547 633.5 L 559.5 603 Z " /><path fill="rgb(32,110,119)" stroke="rgb(32,110,119)" stroke-width="1" opacity="0.9725490196078431" d="M 702.5 603 L 703 611 L 676 611 L 676 624.5 L 675 624.5 L 675 610 L 701.5 610 L 702 609.5 L 702.5 603 Z " /><path fill="rgb(32,110,119)" stroke="rgb(32,110,119)" stroke-width="1" opacity="0.9725490196078431" d="M 811.5 608 L 812 611.5 L 811 611.5 L 811.5 608 Z " /><path fill="rgb(32,110,119)" stroke="rgb(32,110,119)" stroke-width="1" opacity="0.9725490196078431" d="M 572.5 612 L 574.5 613 L 576.5 613 Q 582 614.5 583.5 612 L 584.5 614 L 567 613.5 L 572.5 612 Z " /><path fill="rgb(32,110,119)" stroke="rgb(32,110,119)" stroke-width="1" opacity="0.9725490196078431" d="M 535.5 616 L 536 620.5 L 535 620.5 L 535.5 616 Z " /><path fill="rgb(32,110,119)" stroke="rgb(32,110,119)" stroke-width="1" opacity="0.9725490196078431" d="M 535.5 623 L 536 626.5 L 535 626.5 L 535.5 623 Z " /><path fill="rgb(32,110,119)" stroke="rgb(32,110,119)" stroke-width="1" opacity="0.9725490196078431" d="M 564.5 623 L 563.5 625 L 564.5 623 Z " /><path fill="rgb(32,110,119)" stroke="rgb(32,110,119)" stroke-width="1" opacity="0.9725490196078431" d="M 566.5 623 L 590 623.5 L 566.5 624 L 566.5 623 Z " /><path fill="rgb(32,110,119)" stroke="rgb(32,110,119)" stroke-width="1" opacity="0.9725490196078431" d="M 644.5 623 L 645.5 624 L 655 624.5 L 629.5 625 L 629.5 624 L 643.5 624 L 644.5 623 Z " /><path fill="rgb(32,110,119)" stroke="rgb(32,110,119)" stroke-width="1" opacity="0.9725490196078431" d="M 593.5 630 L 594 632.5 L 593 632.5 L 593.5 630 Z " /><path fill="rgb(32,110,119)" stroke="rgb(32,110,119)" stroke-width="1" opacity="0.9725490196078431" d="M 654.5 631 L 655 633 L 653 632.5 L 654.5 631 Z " /><path fill="rgb(101,183,60)" stroke="rgb(101,183,60)" stroke-width="1" opacity="0.9529411764705882" d="M 631.5 244 Q 633.4 262.6 645.5 271 L 650.5 274 L 667 278.5 L 664.5 280 L 662.5 280 Q 648.2 281.2 641 289.5 L 635 299.5 L 630.5 312 Q 628.4 297.2 621 289 L 609.5 282 L 595 279 Q 593.6 275.3 599.5 277 L 614.5 272 L 623 264.5 L 627 257.5 L 629 252.5 L 629 248.5 L 631.5 244 Z " /><path fill="rgb(101,183,60)" stroke="rgb(101,183,60)" stroke-width="1" opacity="0.9529411764705882" d="M 526.5 285 L 533.5 285 L 543.5 287 Q 556.4 291.6 564 301.5 L 565.5 304 L 567 303.5 L 566 305.5 Q 574.5 315 573 334.5 L 572 339 Q 569.3 337.9 570 340.5 L 571 342.5 L 569 342.5 L 570 344.5 L 568 344.5 L 569 346.5 L 567 347.5 L 567.5 349 L 566 349.5 L 566.5 351 L 565 350.5 L 564 352.5 Q 566.3 353.8 563.5 355 Q 562.3 352.8 561 355.5 L 562 357.5 L 558.5 359 L 554 362.5 Q 556.3 363.8 553.5 365 L 553.5 363 L 545.5 367 L 545.5 365 Q 543.3 365.8 544 363.5 Q 542.3 365.1 540.5 362 L 535.5 361 L 532.5 362 L 528 360.5 L 531 359.5 Q 523 360 519.5 356 Q 518 358.5 516.5 355 L 511.5 352 L 510.5 353 L 507.5 350 L 502 349 Q 503.3 346 499.5 347 L 493.5 343 Q 492.2 345.3 491 342.5 L 488 332.5 L 488 321.5 L 487 319.5 L 489 319.5 L 488 315.5 L 490 315.5 L 489 312 L 491 311.5 L 490.5 310 L 492 309.5 L 491.5 308 L 493 307.5 L 493 305.5 Q 496.3 297.3 503.5 293 L 515.5 287 L 526.5 285 Z " /><path fill="rgb(101,183,60)" stroke="rgb(101,183,60)" stroke-width="1" opacity="0.9529411764705882" d="M 666.5 320 L 669 320.5 L 655 349 L 653 349.5 L 653 351.5 L 652 355 L 650 355.5 L 650.5 357 L 649 357.5 L 649.5 359 Q 647.3 358.3 648 360.5 L 647.5 363 L 646 363.5 L 646.5 365 L 645 365.5 L 645.5 367 L 644 367.5 L 644.5 369 L 643 369.5 L 643.5 371 L 642 371.5 L 642.5 373 L 641 373.5 L 641.5 375 L 640 375.5 L 640.5 377 L 639 376.5 L 640 378.5 L 638 378.5 L 639 380.5 L 637 380.5 L 638 382.5 L 636 382.5 L 637 384.5 L 635 384.5 L 636 386.5 L 634 387.5 L 634.5 389 L 633 389.5 L 633.5 391 L 632 390.5 L 633 392.5 L 631 392.5 L 632 394.5 L 630 394.5 L 628 399.5 L 628.5 401 L 627 400.5 L 628 402.5 L 626 402.5 L 627 404.5 L 625 404.5 L 626 406.5 L 624 406.5 L 619 417.5 L 619.5 419 L 618 418.5 L 613.5 427 L 614 425.5 L 617 418.5 L 616 416.5 L 618 416.5 L 617 413.5 L 617.5 412 L 616 411.5 L 617 408.5 L 617 406 L 615 406 Q 616.1 403.3 613.5 404 L 613.5 402 L 611 401.5 Q 614.5 400 612 398.5 L 611.5 397 L 610 397.5 Q 612.3 396.3 609.5 395 L 608 394.5 L 612 389.5 L 569 431.5 L 549 460.5 L 524.5 513 L 524 511.5 L 532 492.5 L 531.5 491 L 533 491.5 L 534 487.5 L 532 487.5 L 535 485.5 L 531 485 L 532 482.5 L 530 479 L 528 478.5 L 528.5 477 L 527 476.5 Q 529.3 475.3 526.5 474 L 525 474.5 L 526 473.5 Q 522.9 471.8 524.5 470 L 523 470 L 523 465 L 521.5 465 L 520.5 462 L 519.5 469 L 519 456.5 L 518 455.5 L 518 420.5 L 522 408.5 L 521.5 407 Q 522.8 409.3 524 406.5 L 523 404.5 Q 525 406.2 527 402.5 L 526 400.5 L 530.5 396 L 532.5 396 L 535 394.5 L 533.5 392 Q 535 395.5 536.5 393 L 538 392.5 L 537.5 391 L 539.5 392 L 539.5 390 L 541.5 391 L 541.5 389 L 543.5 390 L 543.5 388 L 545.5 389 L 545.5 387 L 547.5 388 L 547.5 386 L 549.5 387 L 553 384.5 L 552.5 383 L 554.5 384 L 554.5 382 L 556.5 383 L 556.5 381 L 558.5 382 L 558.5 380 L 560.5 381 L 560.5 379 L 562 379.5 L 563 377.5 L 562.5 376 L 565.5 378 L 565.5 376 L 567.5 377 L 567.5 375 L 569.5 376 L 569.5 374 L 571.5 375 L 571.5 373 L 573.5 374 L 574.5 371 L 576.5 372 L 576.5 370 L 578.5 371 L 578.5 369 L 580.5 370 L 580.5 368 L 582.5 369 L 582.5 367 L 584.5 368 L 584.5 366 L 586 366.5 L 586.5 365 L 588 365.5 L 588.5 364 L 590 364.5 L 591.5 362 L 593 362.5 L 592 360.5 L 595 361.5 Q 594.3 359.3 596.5 360 L 624.5 344 L 626 344.5 Q 625.3 342.3 627.5 343 L 666.5 320 Z M 621 379 L 617 384 L 621 381 L 621 379 Z " /><path fill="rgb(101,183,60)" stroke="rgb(101,183,60)" stroke-width="1" opacity="0.9529411764705882" d="M 487.5 334 L 488 336.5 L 487 336.5 L 487.5 334 Z " /><path fill="rgb(101,183,60)" stroke="rgb(101,183,60)" stroke-width="1" opacity="0.9529411764705882" d="M 558.5 360 L 557.5 362 L 558.5 360 Z " /><path fill="rgb(101,183,60)" stroke="rgb(101,183,60)" stroke-width="1" opacity="0.9529411764705882" d="M 521 516 L 523 516.5 L 521.5 520 L 521 516 Z " /><path fill="rgb(101,183,60)" stroke="rgb(101,183,60)" stroke-width="1" opacity="0.9529411764705882" d="M 504.5 566 L 555.5 566 L 557 567.5 L 555.5 567 L 504.5 567 L 504.5 566 Z " /><path fill="rgb(101,183,60)" stroke="rgb(101,183,60)" stroke-width="1" opacity="0.9529411764705882" d="M 505 568 L 554.5 568 L 555 568.5 L 555 577 L 536 577.5 L 536.5 579 L 535 578.5 L 535 633.5 L 534.5 634 L 523 634 L 522.5 578 L 520.5 579 L 520.5 578 L 522 577.5 L 505 577 L 505 568 Z " /><path fill="rgb(101,183,60)" stroke="rgb(101,183,60)" stroke-width="1" opacity="0.9529411764705882" d="M 571.5 574 L 583.5 574 L 585 575.5 L 584 577.5 L 586 577.5 L 585 580 L 587 580.5 L 586 582.5 L 589.5 591 L 591 590.5 L 590 592.5 L 591.5 596 L 593 595.5 L 592 597.5 L 594 597.5 L 593 599.5 L 596.5 608 L 598 607.5 L 597 609.5 L 599.5 615 L 601 614.5 L 600 617.5 L 602.5 622 L 604 621.5 L 603 624.5 L 607 634 L 594.5 634 L 594 630.5 L 589.5 623 L 564.5 623 L 563 624.5 L 560 634 L 548.5 634 L 548 632.5 L 552 622.5 L 551.5 621 L 553 621.5 L 556 612.5 L 555.5 611 L 557 611.5 L 556 609.5 L 558 609.5 L 559 605.5 L 558.5 604 L 560 604.5 L 563 595.5 L 562.5 594 L 564 594.5 L 563 591.5 L 565 591.5 L 564 589.5 L 566 589.5 L 565 587.5 L 567 587 L 566 584.5 L 568 584.5 L 567 582.5 L 569 582 L 571.5 576 L 584 575.5 L 571.5 575 L 571.5 574 Z M 578 589 Q 575 590 577 592 L 573 598 L 574 601 L 573 600 L 570 606 L 571 609 L 570 608 L 567 614 L 585 614 L 584 613 L 586 612 L 587 613 L 586 609 L 585 609 L 585 608 L 583 602 L 581 602 L 582 599 L 581 599 L 581 598 L 580 594 L 579 594 L 579 593 L 578 589 Z " /><path fill="rgb(101,183,60)" stroke="rgb(101,183,60)" stroke-width="1" opacity="0.9529411764705882" d="M 616.5 574 L 628 574.5 L 616.5 575 L 616.5 574 Z " /><path fill="rgb(101,183,60)" stroke="rgb(101,183,60)" stroke-width="1" opacity="0.9529411764705882" d="M 664.5 574 L 707 574.5 L 664.5 575 L 664.5 574 Z " /><path fill="rgb(101,183,60)" stroke="rgb(101,183,60)" stroke-width="1" opacity="0.9529411764705882" d="M 719.5 574 L 730 574.5 L 719.5 575 L 719.5 574 Z " /><path fill="rgb(101,183,60)" stroke="rgb(101,183,60)" stroke-width="1" opacity="0.9529411764705882" d="M 760.5 574 L 771.5 574 L 773 575.5 L 771.5 575 L 760 575.5 L 771 576 L 771 633.5 L 770.5 634 L 761 634 L 745.5 614 L 744 614.5 L 744 612.5 L 738.5 605 L 737 605.5 L 737 603.5 L 734.5 600 Q 732.3 600.8 733 598.5 L 730 597 L 730 633.5 L 729.5 634 L 720 634 L 719.5 582 L 718.5 585 L 718 576 L 729.5 576 L 730 577.5 L 733 578.5 L 733 580.5 L 734.5 583 Q 736.3 580.2 738 584.5 L 737 586.5 L 741 588.5 Q 738.5 590 742 591.5 L 743.5 594 L 746 592.5 Q 742.5 594 745 595.5 L 746.5 598 L 748 597.5 L 748 599.5 L 748.5 601 Q 749.8 598.8 751 601.5 Q 748.5 603 752 604.5 L 752.5 606 Q 754.2 603.3 756 607.5 L 755 609.5 L 759 612.5 L 760 608.5 L 760 576.5 Q 757.8 575.3 760.5 574 Z " /><path fill="rgb(101,183,60)" stroke="rgb(101,183,60)" stroke-width="1" opacity="0.9529411764705882" d="M 784.5 574 L 831 574.5 L 784.5 575 L 784.5 574 Z " /><path fill="rgb(101,183,60)" stroke="rgb(101,183,60)" stroke-width="1" opacity="0.9529411764705882" d="M 614.5 576 L 615 613.5 L 614 613.5 L 614.5 576 Z " /><path fill="rgb(101,183,60)" stroke="rgb(101,183,60)" stroke-width="1" opacity="0.9529411764705882" d="M 616 576 L 626.5 576 L 627 576.5 L 627 625 L 654.5 625 L 655 628.5 L 653.5 633 L 655 633.5 L 616 634 L 616 576 Z " /><path fill="rgb(101,183,60)" stroke="rgb(101,183,60)" stroke-width="1" opacity="0.9529411764705882" d="M 664 576 L 705.5 576 L 706 577.5 L 706 579.5 L 707 585.5 L 705.5 585 L 676.5 585 L 675 586.5 L 675 599.5 L 676.5 601 L 702.5 601 L 703 602.5 L 702 603.5 L 702 610 L 675 610 L 675 625 L 704.5 625 L 706 626.5 L 706 633.5 L 705.5 634 L 664 634 L 664 576 Z " /><path fill="rgb(101,183,60)" stroke="rgb(101,183,60)" stroke-width="1" opacity="0.9529411764705882" d="M 782 576 L 829.5 576 L 830 576.5 L 830 584.5 L 831 587 L 829 586.5 L 829.5 585 L 811 585 L 811 625.5 Q 808.7 626.8 810 631.5 L 811 634 L 800.5 634 L 800 633.5 L 800 585 L 782 585 L 782 576 Z " /><path fill="rgb(101,183,60)" stroke="rgb(101,183,60)" stroke-width="1" opacity="0.9529411764705882" d="M 552.5 578 L 556 578.5 L 552.5 579 L 552.5 578 Z " /><path fill="rgb(101,183,60)" stroke="rgb(101,183,60)" stroke-width="1" opacity="0.9529411764705882" d="M 781.5 586 L 784 586.5 L 781.5 587 L 781.5 586 Z " /><path fill="rgb(101,183,60)" stroke="rgb(101,183,60)" stroke-width="1" opacity="0.9529411764705882" d="M 718.5 592 L 719 598.5 L 718 598.5 L 718.5 592 Z " /><path fill="rgb(101,183,60)" stroke="rgb(101,183,60)" stroke-width="1" opacity="0.9529411764705882" d="M 703.5 610 L 702.5 612 L 703.5 610 Z " /><path fill="rgb(101,183,60)" stroke="rgb(101,183,60)" stroke-width="1" opacity="0.9529411764705882" d="M 614.5 618 L 615 620.5 L 614 620.5 L 614.5 618 Z " /></svg>